<svg width="168" height="40" viewBox="0 0 168 40" fill="none" xmlns="http://www.w3.org/2000/svg">
<rect x="40" y="40" width="40" height="40" rx="9.99999" transform="rotate(-180 40 40)" fill="#212020"/>
<path fill-rule="evenodd" clip-rule="evenodd" d="M28.5636 30.4166C30.4498 30.4166 31.9788 28.8875 31.9788 27.0013L31.9788 19.1262C31.9788 16.157 29.5718 13.7499 26.6025 13.7499L17.8126 13.7499L13.2606 10.378C12.5639 9.86197 11.7198 9.58339 10.8528 9.58339C9.28889 9.58339 8.02113 10.8512 8.02113 12.415L8.02113 19.3056C8.02113 23.1409 11.1303 26.25 14.9656 26.25L22.1874 26.25L27.2084 29.9693C27.6005 30.2598 28.0756 30.4166 28.5636 30.4166ZM22.1876 26.2499L27.8122 26.2499L27.8122 17.9166C24.9709 17.9166 22.2047 17.0037 19.9216 15.3125L17.8124 13.7501L12.1878 13.7501L12.1878 22.0834C15.0291 22.0834 17.7952 22.9963 20.0783 24.6875L22.1876 26.2499Z" fill="#F9F7F7"/>
<path fill-rule="evenodd" clip-rule="evenodd" d="M131.933 18.0076C132.651 14.007 135.699 11.0007 140.377 11C145.757 11.0008 148.984 14.9787 148.984 19.8695C148.984 24.7608 145.756 28.7391 140.376 28.7391C135.771 28.7391 132.745 25.8271 131.966 21.9206H129.68V28.4782H125.506V4.99998H129.68V18.0076H131.917C131.718 19.3967 131.77 20.7043 131.976 21.9206H136.264C136.86 23.7043 138.279 24.9565 140.379 24.9565C143.216 24.9565 144.814 22.6739 144.814 19.8695C144.814 17.0652 143.216 14.7826 140.379 14.7826C138.207 14.7826 136.763 16.1228 136.205 18.0076H131.933ZM99.425 6.56187H95.2511V11.2575H92.1207V14.9097H95.2511V23.1923C95.2511 27.3336 96.8815 28.4749 100.338 28.4749H104.121V24.8227H101.218C99.4576 24.8227 99.425 24.6596 99.425 22.7683V14.9097H104.121V11.2575H99.425V6.56187ZM83.3157 11C79.4679 11 75.7505 12.6631 75.1636 17H79.2723C79.5005 15.5978 80.2505 14.3913 83.1853 14.3913C86.1201 14.3913 86.6092 15.6957 86.6418 16.8696C86.6684 18.1709 84.878 18.2177 82.5566 18.2784L82.5565 18.2784L82.5565 18.2784H82.5564L82.5561 18.2784C82.0274 18.2922 81.4712 18.3067 80.9027 18.337C77.4462 18.5326 74.6419 19.9348 74.6419 23.75C74.6419 26.6522 77.4136 28.7391 80.6418 28.7391C83.8701 28.7391 85.5983 27.3696 86.5766 24.9891C86.6418 24.8261 86.7723 24.5 87.0983 24.6304C87.3918 24.7609 87.2614 25.087 87.131 25.3804C86.8375 25.9348 86.6418 26.4891 86.6418 27.2717V28.4783H90.8157V18.9565C90.8157 12.3044 87.2614 11 83.3157 11ZM82.1092 25.6087C80.1853 25.8696 78.8158 24.9565 78.8158 23.5217C78.8158 21.9891 79.8266 21.3044 81.6201 21.1087L81.6331 21.1073C84.1038 20.8473 85.6653 20.6829 86.6418 19.6087C86.6092 23.8804 84.3266 25.3152 82.1092 25.6087ZM106.469 17C107.056 12.6631 110.773 11 114.621 11C118.567 11 122.121 12.3044 122.121 18.9565V28.4783H117.947V27.2717C117.947 26.4891 118.143 25.9348 118.436 25.3804C118.567 25.087 118.697 24.7609 118.404 24.6304C118.078 24.5 117.947 24.8261 117.882 24.9891C116.904 27.3696 115.175 28.7391 111.947 28.7391C108.719 28.7391 105.947 26.6522 105.947 23.75C105.947 19.9348 108.751 18.5326 112.208 18.337C112.777 18.3067 113.333 18.2922 113.862 18.2784H113.862L113.862 18.2784C116.183 18.2177 117.974 18.1709 117.947 16.8696C117.915 15.6957 117.425 14.3913 114.491 14.3913C111.556 14.3913 110.806 15.5978 110.578 17H106.469ZM110.121 23.5217C110.121 24.9565 111.491 25.8696 113.415 25.6087C115.632 25.3152 117.915 23.8804 117.947 19.6087C116.971 20.6829 115.409 20.8473 112.938 21.1073L112.925 21.1087C111.132 21.3044 110.121 21.9891 110.121 23.5217ZM163.597 11.2609V12.0435C163.597 12.6631 163.695 13.1196 163.955 13.6087L163.974 13.6464C164.135 13.9667 164.334 14.3637 164.021 14.4892C163.738 14.615 163.545 14.225 163.503 14.1387L163.499 14.1305C162.39 12.337 160.727 11 158.053 11C153.586 11 150.553 14.8478 150.553 19.4783C150.553 24.1087 153.586 27.9565 158.053 27.9565C160.662 27.9565 162.39 26.6522 163.499 24.7609C163.564 24.6304 163.727 24.337 164.021 24.4674C164.307 24.6105 164.166 24.8793 164.017 25.1634C163.996 25.203 163.975 25.2428 163.955 25.2826C163.695 25.7717 163.597 26.2283 163.597 26.8152C163.597 29.9782 162.129 31.6087 159.195 31.6087C156.423 31.6087 155.379 30.4348 155.184 28.8696H151.075C151.368 32.0978 153.847 35 159.26 35C164.673 35 167.771 32.163 167.771 26.6522V11.2609H163.597ZM159.031 24.1739C156.097 24.1739 154.727 22.0217 154.727 19.4783C154.727 16.9348 156.097 14.7826 159.031 14.7826C161.771 14.7826 163.597 16.9348 163.597 19.4783C163.597 22.0217 161.771 24.1739 159.031 24.1739ZM65.088 11C60.4119 11 57.2587 13.8663 56.538 18.0076H60.8065C61.3674 16.0446 62.8641 14.7826 65.0913 14.7826C67.4391 14.7826 68.7108 16.1522 68.9717 17.7826H73.0804C72.7869 14.2609 69.9174 11 65.0913 11H65.088ZM60.8561 21.9204C61.4592 23.7787 62.9325 24.9557 65.0871 24.9563C67.4338 24.9557 68.7051 23.5864 68.9659 21.9563H73.0745C72.7811 25.478 69.9441 28.7389 65.0854 28.7389C60.5659 28.7389 57.3767 25.9607 56.5778 21.9204H53.3333V18.0074H56.5355C56.3365 19.3965 56.3887 20.7041 56.5941 21.9204H60.8561Z" fill="#212020"/>
</svg>
